<svg id="Layer_1" data-name="Layer 1" xmlns="http://www.w3.org/2000/svg" xmlns:xlink="http://www.w3.org/1999/xlink" viewBox="0 0 569.39 607.92"><defs><style>.cls-1{fill:url(#Orange);}.cls-2{fill:#363f45;}.cls-3{fill:url(#Turquoise);}.cls-4{fill:url(#Red_Orange);}.cls-5{fill:url(#Gold);}.cls-6{fill:url(#Orange-2);}.cls-7{fill:url(#Green);}.cls-8{fill:url(#Green-2);}.cls-9{fill:url(#Gold-2);}.cls-10{fill:url(#linear-gradient);}.cls-11{fill:url(#Turquoise-2);}.cls-12{fill:url(#Orange-3);}.cls-13{fill:url(#Green-3);}.cls-14{fill:url(#Gold-3);}</style><linearGradient id="Orange" x1="592.33" y1="569.41" x2="659.75" y2="569.41" gradientUnits="userSpaceOnUse"><stop offset="0" stop-color="#f69453"/><stop offset="0.5" stop-color="#f37521"/><stop offset="1" stop-color="#d4622a"/></linearGradient><linearGradient id="Turquoise" x1="496.14" y1="449.3" x2="600.07" y2="449.3" gradientUnits="userSpaceOnUse"><stop offset="0.01" stop-color="#3eb0ca"/><stop offset="0.5" stop-color="#0099b9"/><stop offset="0.99" stop-color="#007c84"/></linearGradient><linearGradient id="Red_Orange" x1="630.8" y1="584.74" x2="770.14" y2="584.74" gradientUnits="userSpaceOnUse"><stop offset="0" stop-color="#f37e5f"/><stop offset="0.5" stop-color="#ec1c24"/><stop offset="1" stop-color="#cf232a"/></linearGradient><linearGradient id="Gold" x1="521.13" y1="718.98" x2="678.07" y2="718.98" gradientUnits="userSpaceOnUse"><stop offset="0" stop-color="#ffe7a3"/><stop offset="0.5" stop-color="#ffca05"/><stop offset="1" stop-color="#faac18"/></linearGradient><linearGradient id="Orange-2" x1="631.33" y1="730.47" x2="768.12" y2="730.47" xlink:href="#Orange"/><linearGradient id="Green" x1="498.26" y1="520.53" x2="580.13" y2="520.53" gradientUnits="userSpaceOnUse"><stop offset="0" stop-color="#64c08a"/><stop offset="0.5" stop-color="#00a550"/><stop offset="1" stop-color="#00914c"/></linearGradient><linearGradient id="Green-2" x1="496.14" y1="685.19" x2="531.01" y2="685.19" xlink:href="#Green"/><linearGradient id="Gold-2" x1="546.15" y1="560.77" x2="595.14" y2="560.77" xlink:href="#Gold"/><linearGradient id="linear-gradient" x1="311.29" y1="444.06" x2="453.86" y2="444.06" gradientUnits="userSpaceOnUse"><stop offset="0" stop-color="#cf232a"/><stop offset="0.5" stop-color="#ec1c24"/><stop offset="1" stop-color="#f37e5f"/></linearGradient><linearGradient id="Turquoise-2" x1="200.75" y1="338.02" x2="270.77" y2="338.02" xlink:href="#Turquoise"/><linearGradient id="Orange-3" x1="260.84" y1="507.44" x2="453.86" y2="507.44" xlink:href="#Orange"/><linearGradient id="Green-3" x1="200.75" y1="407.85" x2="270.77" y2="407.85" xlink:href="#Green"/><linearGradient id="Gold-3" x1="200.75" y1="493.18" x2="270.77" y2="493.18" xlink:href="#Gold"/></defs><path class="cls-1" d="M595.14,606a145.44,145.44,0,0,0,37.91,4.9,108.75,108.75,0,0,0,25.54-3.07c.41.18.75.4,1.16.58a346.22,346.22,0,0,1-29-66.89A64.71,64.71,0,0,1,592.73,528,572.57,572.57,0,0,0,595.14,606Z" transform="translate(-200.75 -200.1)"/><path class="cls-2" d="M600.07,414.77A66.33,66.33,0,0,1,633.39,406Q661,406,681,426t20,47.62c0,.1,0,.19,0,.29a504,504,0,0,1,57.94,54.71q11.19-25.1,11.24-55a131.81,131.81,0,0,0-21.42-72.72,138.74,138.74,0,0,0-57.52-50.72l36.32-84.82-54.69-23.21-40,94.74q-57.15,0-97,39.7a139.78,139.78,0,0,0-18.8,23.24C546.17,399.35,574.09,405.16,600.07,414.77Z" transform="translate(-200.75 -200.1)"/><path class="cls-3" d="M585.25,425.71a69.89,69.89,0,0,1,14.82-10.94c-26-9.61-53.9-15.42-82.94-15-13.93,21.53-21,46.1-21,73.8a153.29,153.29,0,0,0,2.12,25.24,201.25,201.25,0,0,1,68.23-38.4A64.47,64.47,0,0,1,585.25,425.71Z" transform="translate(-200.75 -200.1)"/><path class="cls-4" d="M727.63,571.91a134.36,134.36,0,0,0,31.27-43.32A504,504,0,0,0,701,473.88q-.11,28-19.68,47.86-19.74,20-47.89,20c-.89,0-1.71-.22-2.59-.25a346.22,346.22,0,0,0,29,66.89c10.66,18.55,24,36.93,40.61,52.2,18.39,16.94,40.78,29.93,67.76,35a158.61,158.61,0,0,0,2-24.32Q770.14,612.38,727.63,571.91Z" transform="translate(-200.75 -200.1)"/><path class="cls-5" d="M631.33,738.69c-17.87-.47-33.28-6.88-46.08-19.52q-20-19.73-20-47.89a65.61,65.61,0,0,1,5.14-25.6L531,629.92c-7.91,34.39-11.88,74.46-8.88,120.39C549.25,788.67,586.28,808,633.39,808a136,136,0,0,0,44.68-7.64C658.39,782.84,643.14,761.63,631.33,738.69Z" transform="translate(-200.75 -200.1)"/><path class="cls-6" d="M701,671q0,27.75-20,47.81t-47.63,20c-.72,0-1.36-.16-2.06-.19,11.81,22.94,27.06,44.15,46.74,61.7A139.45,139.45,0,0,0,709.7,785c33.34-22,52.66-51.92,58.42-89.39-27-5.1-49.37-18.09-67.76-35A88.14,88.14,0,0,1,701,671Z" transform="translate(-200.75 -200.1)"/><path class="cls-7" d="M565.27,473.59a71.32,71.32,0,0,1,1.22-13.16,201.25,201.25,0,0,0-68.23,38.4q6.94,41.58,37.47,72.33c3.37,3.38,6.86,6.53,10.42,9.48a327,327,0,0,1,34-65A65.12,65.12,0,0,1,565.27,473.59Z" transform="translate(-200.75 -200.1)"/><path class="cls-8" d="M506.38,620.07a131.67,131.67,0,0,0-10.24,51.21q0,40.46,23.57,75.8c.77,1.15,1.63,2.11,2.42,3.23-3-45.93,1-86,8.88-120.39Z" transform="translate(-200.75 -200.1)"/><path class="cls-9" d="M592.73,528a72.09,72.09,0,0,1-7.48-6.22,72.84,72.84,0,0,1-5.12-6.15,327,327,0,0,0-34,65,128.39,128.39,0,0,0,49,25.31A572.57,572.57,0,0,1,592.73,528Z" transform="translate(-200.75 -200.1)"/><path class="cls-10" d="M453.86,368.15v-27h-70v27a73.56,73.56,0,0,1-5.58,27.35,69.12,69.12,0,0,1-14.48,21.66q-19.54,20-48.72,20h-3.77c11.82,45.11,45.44,115.4,139.77,109.45q-8.6-43.29-43.88-74.7Q453.86,430.39,453.86,368.15Z" transform="translate(-200.75 -200.1)"/><path class="cls-11" d="M270.77,312.64a215.64,215.64,0,0,0-70-9.52V373a195.69,195.69,0,0,1,70-19.16Z" transform="translate(-200.75 -200.1)"/><path class="cls-2" d="M270.77,312.64V200.1h-70v103A215.64,215.64,0,0,1,270.77,312.64Z" transform="translate(-200.75 -200.1)"/><path class="cls-12" d="M311.29,437.13H270.77V404.52c-8,26.4-17.62,75.66,0,126.37V507.16h44.29q29.18,0,48.72,19.7t20.06,48.76v34.75h70V575.62a148.77,148.77,0,0,0-2.8-29C356.73,552.53,323.11,482.24,311.29,437.13Z" transform="translate(-200.75 -200.1)"/><path class="cls-13" d="M270.77,376V353.83a195.69,195.69,0,0,0-70,19.16v88.88A198.6,198.6,0,0,1,270.77,376Z" transform="translate(-200.75 -200.1)"/><path class="cls-14" d="M270.77,404.52V376a198.6,198.6,0,0,0-70,85.88v148.5h70V530.89C253.15,480.18,262.77,430.92,270.77,404.52Z" transform="translate(-200.75 -200.1)"/></svg>